<svg xmlns="http://www.w3.org/2000/svg" width="65.216" height="80.494" viewBox="0 0 65.216 80.494">
  <g id="组_2321" data-name="组 2321" transform="translate(22975.525 4859.061)">
    <path id="路径_4670" data-name="路径 4670" d="M525.435,6669.52c0,2.109,2.426,1.695,3.466,3.009.837,1.055-.141,2.214.316,2.587.134.113.352.19.506.3.907.7.478,1.294.563,1.737s1.188.38,1.125,2.109c0,.844.112.6.408,1.188a1.272,1.272,0,0,1,0,1.3c-.246.408-1.772.809-2.285.957a17.644,17.644,0,0,1-2.637.542c-1.209.133-4.844.366-5.625-.7-.562-.759-.155-1.743.225-2.467s0-.6-.162-1.174a1.631,1.631,0,0,1,.239-1.266c.225-.372.513-.52.569-1.047s.64-.668.352-1.111c-.105-.168-.246-.231-.274-.548a1,1,0,0,1,.169-.661,2.962,2.962,0,0,1,.837-.781c.584-.372.352-.457.274-1.153a3.385,3.385,0,0,1,.113-1.406A2.109,2.109,0,0,1,525.435,6669.52Z" transform="translate(-23495.789 -11527.779)" fill="#fff" stroke="#231815" stroke-miterlimit="22.93" stroke-width="0.07" fill-rule="evenodd"/>
    <path id="路径_4671" data-name="路径 4671" d="M571.552,6678.375c-.274-.225-.443-.2-.619-.542a.963.963,0,0,1,1.512-1.125,1,1,0,0,1,.148,1.258c-.056.24.063.205-.1.458a7.244,7.244,0,0,1-.949,1.322l-.324-.169Z" transform="translate(-23510.59 -11529.842)" fill="#fff" stroke="#231815" stroke-miterlimit="22.93" stroke-width="0.07" fill-rule="evenodd"/>
    <path id="路径_4672" data-name="路径 4672" d="M561.664,6680.933a4.019,4.019,0,0,1-1.364-.978c-.478-.478-.977-.815-.7-1.491a.956.956,0,0,1,1.526-.3.986.986,0,0,1,.289.879c-.07.38-.316.443-.471.7A6.722,6.722,0,0,0,561.664,6680.933Z" transform="translate(-23507.225 -11530.27)" fill="#fff" stroke="#231815" stroke-miterlimit="22.93" stroke-width="0.07" fill-rule="evenodd"/>
    <path id="路径_4673" data-name="路径 4673" d="M563.82,6687.633a16.592,16.592,0,0,1,11.777,3.825,12.465,12.465,0,0,1,2.995,15.531c-.133.253-.394.211-.7.295a4.354,4.354,0,0,0-.7.274,4.6,4.6,0,0,0-2.559,3.319c-.225,1.069.07.844-.591,1.329a19.589,19.589,0,0,1-11.9,3.754,20.267,20.267,0,0,1-6.651-1.2,15.82,15.82,0,0,1-4.985-2.861,13.4,13.4,0,0,1-4.443-7.319l-.239-1.723a11.9,11.9,0,0,1,0-1.877,13.85,13.85,0,0,1,5.92-9.717,17.689,17.689,0,0,1,5.231-2.608c.513-.142,1.069-.261,1.582-.373s1.132-.183,1.666-.3a30.8,30.8,0,0,1,3.607-.345Z" transform="translate(-23503.146 -11533.146)" fill="#fff" stroke="#231815" stroke-miterlimit="22.93" stroke-width="0.07" fill-rule="evenodd"/>
    <path id="路径_4674" data-name="路径 4674" d="M555.287,6764.994a22.607,22.607,0,0,0,7.966.7c15.784-1.209,18.984-11.994,19.6-15.1.077-.373.134-.752.2-1.132a9.472,9.472,0,0,0,.176-2.671c-.619-.274-2.011,0-4.219-1.694a17.509,17.509,0,0,1-2.812-3c-.422.063-.816.2-1.287.253a8.258,8.258,0,0,1-3.867-.513,6.012,6.012,0,0,1-3.339-2.63,7.992,7.992,0,0,1-.907-4.956,9.982,9.982,0,0,1,.591-2.4,9.6,9.6,0,0,1,1.048-1.939,6.635,6.635,0,0,1-2.63-2.054c-.422.057-1.09.281-1.554.38a22.565,22.565,0,0,1-3.424.429c-.64.049-.478.091-1.23.633-3.4,2.426-7.361,3.825-11.664,2.742a11.488,11.488,0,0,1-2.7-1.09,9.728,9.728,0,0,1-2.187-1.6,15.557,15.557,0,0,1-3.143-.45c-.83-.189-2.594-.836-2.651-.851,0,.556.633,5.288.759,6.166l.225,1.814c0,.176,0,.1.07.19a24.855,24.855,0,0,0,3.9,1.209c.316.077.8.084.893.394a3.044,3.044,0,0,1-.253.984,24.6,24.6,0,0,0-1.111,6.574c-.183,7.882,4.669,16.256,12.079,19.124C554.2,6764.649,554.887,6764.874,555.287,6764.994Z" transform="translate(-23500.617 -11545.104)" fill="#fff" stroke="#231815" stroke-miterlimit="22.93" stroke-width="0.07" fill-rule="evenodd"/>
    <path id="路径_4675" data-name="路径 4675" d="M521.9,6685.973c.359.64,4.022.479,4.5.436a21.313,21.313,0,0,0,5.73-1.49,1.139,1.139,0,0,0,.415-1.737c-.155-.289-.4-.436-.45-.8-.07-.59.2-1.582-.914-2.243a1.665,1.665,0,0,1-.4-.337c-.07.274,0,.1-.19.309l-.2.289a4.784,4.784,0,0,1-.457.527,5.893,5.893,0,0,1-2.179,1.547,6.7,6.7,0,0,1-1.807.872,7.949,7.949,0,0,0-2.967,1.562C522.371,6685.438,522.413,6686.114,521.9,6685.973Z" transform="translate(-23496.057 -11530.831)" fill="#f6e9d3" fill-rule="evenodd"/>
    <path id="路径_4676" data-name="路径 4676" d="M522.742,6676.4a.7.7,0,0,0-.33.654c0,.542-.07.394-.281.767l.077.056c.162.155-.056.049.12.112.323.12,1.111-.886,1.589-1.209a10.709,10.709,0,0,1,1.048-.583,15.57,15.57,0,0,0,2-1.23,8.017,8.017,0,0,0,.872-.766c.541-.521,1.287-1.8.352-2.264.126-.049-.141-.12.239,0a6.878,6.878,0,0,0-1.912-.815,2.108,2.108,0,0,1,0,1.807,5.826,5.826,0,0,1-.879,1.448,5.009,5.009,0,0,1-2.5,1.625C522.875,6676.372,522.587,6677.159,522.742,6676.4Z" transform="translate(-23496.125 -11528.254)" fill="#f6e9d3" fill-rule="evenodd"/>
    <path id="路径_4677" data-name="路径 4677" d="M531.56,6677.439c-.063-1.2-1.575-.865-1.336-1.878.035-.168.091-.322.112-.492a.7.7,0,0,0-.042-.45c-.12.274,0,.563-.225,1.005l-.837.949a27.406,27.406,0,0,1-2.454,1.632,7.379,7.379,0,0,1-.808.583,3.794,3.794,0,0,0-1.181.879c-.169.148-.253.162-.38.373l1.877-.612a6.359,6.359,0,0,1,.984-.19,6.084,6.084,0,0,0,.893-.28c.33-.121.6-.176.907-.282s.534-.2.872-.337C531.42,6677.755,530.935,6677.074,531.56,6677.439Z" transform="translate(-23496.801 -11529.293)" fill="#f6e9d3" fill-rule="evenodd"/>
    <path id="路径_4678" data-name="路径 4678" d="M599.133,6754.015l3.74-.555,1.139,7.115.113,4.992-.78,2.608a24.936,24.936,0,0,1-2.812,1.209c-.794.211-7.586,1.407-7.586,1.407l-3.516.225,2.812-2.109,4.219-4.423,2.173-5.09.619-4.078S599.133,6754.064,599.133,6754.015Z" transform="translate(-23516.107 -11552.701)" fill="#E60012" fill-rule="evenodd"/>
    <path id="路径_4679" data-name="路径 4679" d="M537.417,6756.162l1.927-.063-5.625-41.019c-.162,0-.555.239-.886.3a7.094,7.094,0,0,1-1.083,0Z" transform="translate(-23498.98 -11541.307)" fill="#e8b347" fill-rule="evenodd"/>
    <path id="路径_4680" data-name="路径 4680" d="M540.476,6744.285a24.347,24.347,0,0,0-.78,6.1c.2,2.264.274,6.328,1.273,7.51s3.2,7.347,7.783,9.435c3.755,1.729,3.719,1.729,3.719,1.729s-.752.261-.83.3-9.274.373-9.274.373l-6.686-.9-3.867-2.039-.654-1.892.816-2.039,2.2-7.2.654-2.855.274-1,1.1,4.838.668,7,.183.556,1.856.183.309-.577-2.264-18.892,1.533-3.431,2.074.331.211.458S540.476,6744.355,540.476,6744.285Z" transform="translate(-23498.805 -11549.144)" fill="#E60012" fill-rule="evenodd"/>
    <path id="路径_4681" data-name="路径 4681" d="M533.38,6719.488a9.775,9.775,0,0,0,1.2.386,4.069,4.069,0,0,1-.211.556c-.077.183-.155.358-.218.548a8.511,8.511,0,0,0-.422,1.153,12.226,12.226,0,0,1-.344-2.644Zm49.814,22.983c1.111-2.58.077-8.767-.3-12.233-.091-.64-.19-1.357-.33-1.968a5.486,5.486,0,0,0,2.327-3.087,7.731,7.731,0,0,0,.274-1.715v-.752a7.233,7.233,0,0,0-.457-2.257,8.482,8.482,0,0,0-1.835-2.938,13.768,13.768,0,0,0-1.927-1.484c-.548-.366-1.1-.7-1.659-1.069-.274-.183-.513-.337-.787-.534a14.107,14.107,0,0,1-1.2-.851,11.481,11.481,0,0,0-.612-1.405,6.835,6.835,0,0,0-2.721-2.736c-.112-.07-.176,0-.19-.492v-1.406c0-.281.042-.365.042-.64,0-.548.155-1.884.225-2.51a2.9,2.9,0,0,0,.07-1.125,2.767,2.767,0,0,0-2.285-1.814,2.417,2.417,0,0,1,.183-.415,13.592,13.592,0,0,0,.2-10.842l-.394-.843a13.931,13.931,0,0,0-1.16-1.905c-.049-.07-.077-.091-.134-.162a17.567,17.567,0,0,0-2.812-2.735,31.111,31.111,0,0,0-3.023-1.834,1.045,1.045,0,0,0-.239-.106c-.97-.386-4.134-1.532-4.922-1.356,0-.7-.4,0,.148-1.905.112-.443.7-2.869.759-3.171h0a2.039,2.039,0,0,0,1.315-1.639,1.829,1.829,0,0,0-.1-.956c-.963-2.109-3.7-1.35-3.755.218a1.729,1.729,0,0,0-1.6-.365,1.617,1.617,0,0,0-1.146,1.034c-.415,1.075.338,1.455.225,1.926h-.127c-.049-.2-.359-.471-.492-.654-.323-.464-.7-.759-.471-1.245a2.018,2.018,0,0,0-.141-1.856l-.162-.218a2,2,0,0,0-2.925-.127,1.962,1.962,0,0,0-.52,1.863,1.676,1.676,0,0,0,.436.851c.218.247.337.275.309.38l-.893,1.863a.463.463,0,0,1-.211-.225c0-.352.105-.309.127-.583a1.835,1.835,0,0,0-1.329-2,2.01,2.01,0,0,0-1.364.273c-.176.114-.042.142-.246.142,0-.112-.042-.127-.141-.246a1.684,1.684,0,0,0-.2-.225,2.725,2.725,0,0,0-.485-.317,2,2,0,0,0-2.489,2.953c.548.7,1.048.662,1.2.844a7.882,7.882,0,0,1,.577,1.09l1.35,2.573a.824.824,0,0,0,.056.112c.077.134,0,.078.091.092.07.443-.077.7.127,1.1a20.715,20.715,0,0,0-3.058,1.589,1.564,1.564,0,0,0-.2.141,18.813,18.813,0,0,0-3.516,3.009,21.552,21.552,0,0,0-1.624,2.384,14.85,14.85,0,0,0-1.287,2.981,13.829,13.829,0,0,0,.042,7.241,16.057,16.057,0,0,0,3.319,5.625,14.536,14.536,0,0,0,1.582,1.44,5.34,5.34,0,0,0-1.617,2.307,9.22,9.22,0,0,0-3.213,1.266c-.253.154-.176.182-.506.147a17.2,17.2,0,0,1-4.289-.95l-.548-.225c-.534-.2-.485-.2-.534-.534l-.127-.766c-.042-.3-.049-.83-.12-1.111-.042-.176,0-.352-.084-.514a3.963,3.963,0,0,1-.077-.569c-.049-.394-.084-.773-.127-1.1l-.267-2.208c0-.246-.07-.239-.084-.506a14.728,14.728,0,0,1-.155-1.687,3.131,3.131,0,0,0,.225-2.911c-.077-.2-.042-.2.042-.408a2.72,2.72,0,0,0,.239-.746,3.389,3.389,0,0,0-.281-1.694c-.359-.78-.309.07-.2-1.469a3.814,3.814,0,0,1,.07-.562c.063-.45.042-1.188.148-1.638s.056-1.21.176-1.709c.049-.225.105-.822.127-1.1.042-.6.169-1.47.239-2.152l.218-2.25a13.23,13.23,0,0,1,.19-1.6,6.088,6.088,0,0,0,0-.612c0-.2.105-.239.169-.436.429-1.329-.591-1.94-.506-2.334a2.722,2.722,0,0,0-.464-1.927,1.8,1.8,0,0,0-.647-.59,2.2,2.2,0,0,0-1.188-2.306,2.686,2.686,0,0,0-1.6-3.481l-.752-.352c-.253-.126-.527-.19-.794-.309-.415-.19-.4-.471-.527-.549,0-.815.352-1.61-1.251-1.125-.134.042-.7.295-.8.351a2.933,2.933,0,0,0-1.462,2.37v1.477a2.763,2.763,0,0,0-.963,1.011,1.76,1.76,0,0,0-.162,1.309c.253.815.246.042-.063.857a.768.768,0,0,0-.07.26c-.07.464-.218.366-.6,1.1a2.11,2.11,0,0,0,.091,2.18,3.431,3.431,0,0,0-.471,2.854c.169.337.084.267.211.323l.309.345.52,1.406v.127c.148.21,1.2,3.037,1.406,3.515l.436,1.013.134.38c.049.126.077.21.134.337.148.337,0,.232.267.7a.94.94,0,0,0,.042.084c.19.345,1.49,3.621,1.666,4.085l.077.176c.506.963.155,1.16.232,1.948a2.634,2.634,0,0,0,.091.379,2.385,2.385,0,0,0,.443,1.048c.3.429.2.126.19.7,0,2.109,1.16,2.278,1.237,2.728l.7,5.154c.035.366.253,1.456.253,1.75-.984.084-1.659,1.21-1.9,2.067-.78,2.728.668,5.245,2.749,6.8.162.12.45.26.5.485.316,2.271.7,4.668.991,6.939.07.591.64,4.008.548,4.332s-.366,1.307-.562,2.109c-.155.7-.2,1.293-.359,1.982-.464,2.173-1.568,6.9-2.58,8.388a2.734,2.734,0,0,0-.436,1.23,3.156,3.156,0,0,0,.942,2.5,8.481,8.481,0,0,0,3.98,2.109c3.269.921,8.592,1.315,17.022.436a22.955,22.955,0,0,0,8.838.893,26.856,26.856,0,0,0,10.286-2.693c.141,0,.148.084.415.07.035,0,12.986-.562,14.322-3.649Zm-13.528,2.911a18.68,18.68,0,0,0,8.908-13.063h0a13.357,13.357,0,0,0,.281-3.157,7.482,7.482,0,0,0,3-.514c.562,3.572,1.673,11.25.7,13.542s-10.012,3-12.86,3.191Zm-38.544-12.093c-.471,2.187-1.61,7.08-2.7,8.689a1.943,1.943,0,0,0-.316.886,2.5,2.5,0,0,0,.752,1.94,7.847,7.847,0,0,0,3.649,1.913c3,.851,7.8,1.23,15.271.555-9.049-3.825-13.415-14.8-11.383-24.046l.7-2.686-1.758-.436c-.127.168-.914,2.285-1.048,2.636-.7,1.892-.436.971-.246,3.017.105,1.083.267,2.236.422,3.3.612,4.261,1.146,8.557,1.737,12.825.056.211.113.822-1.1,1.034a1.771,1.771,0,0,1-1.751-.479l-.056-.077v-.091c-.07-.527-1.406-11.362-1.645-11.587a23.61,23.61,0,0,1-.513,2.608Zm19.026,14.062a22.618,22.618,0,0,0,7.966.7c15.784-1.209,18.984-11.995,19.6-15.1.077-.372.134-.752.2-1.132a9.479,9.479,0,0,0,.176-2.672c-.619-.274-2.011,0-4.219-1.694a17.517,17.517,0,0,1-2.812-3c-.422.063-.816.2-1.287.253a8.283,8.283,0,0,1-3.867-.514,6.011,6.011,0,0,1-3.34-2.629,7.992,7.992,0,0,1-.907-4.957,9.974,9.974,0,0,1,.591-2.4,9.606,9.606,0,0,1,1.048-1.94,6.625,6.625,0,0,1-2.63-2.053c-.422.057-1.09.281-1.554.38a22.505,22.505,0,0,1-3.424.429c-.64.049-.478.092-1.23.633-3.4,2.426-7.361,3.825-11.664,2.742a11.466,11.466,0,0,1-2.7-1.09,9.728,9.728,0,0,1-2.187-1.6,15.59,15.59,0,0,1-3.143-.45c-.83-.19-2.594-.837-2.651-.851,0,.555.633,5.287.759,6.166l.225,1.814c0,.176,0,.1.07.189a24.657,24.657,0,0,0,3.9,1.209c.316.077.8.084.893.394a3.036,3.036,0,0,1-.253.984,24.6,24.6,0,0,0-1.111,6.574c-.183,7.882,4.669,16.256,12.079,19.125.38.147,1.069.373,1.469.492Zm-17.507-15.032h0l1.329,9.73a1.191,1.191,0,0,0,1,.155,2.864,2.864,0,0,1,.541-.09v-.106c-1.884-13.583-3.515-27.175-5.273-40.779-.155,0-.555.239-.886.3a6.314,6.314,0,0,1-1.083,0l4.408,30.789ZM528.55,6709.2l.2.885c.042.324.07.64.112.949.127.985.78,4.985.8,5.59a7.166,7.166,0,0,1-1.406-1.407c-1.807-2.348-1.28-5.625.323-6.011Zm17.261,4.809a10.794,10.794,0,0,1-5.878-1.681,8.254,8.254,0,0,1-1.406-1.062,8.925,8.925,0,0,1,3.094-1.117c.162-.105.232-.527.323-.746a4.094,4.094,0,0,1,1.47-1.723c.176.056.851.527,1.055.647.394.231.7.408,1.132.618a17.311,17.311,0,0,0,2.482,1.02,20.589,20.589,0,0,0,5.892,1.041,16.031,16.031,0,0,1-3.515,2.018,12.449,12.449,0,0,1-4.626.983Zm28.222-3.649a5.966,5.966,0,0,1,2.067,2.37,8.162,8.162,0,0,1-1.666-1.617,4.825,4.825,0,0,1-.4-.752Zm-12.62-.436a14.976,14.976,0,0,0,2.812-1.2c.443-.226.872-.464,1.287-.7a14.2,14.2,0,0,1,1.259-.8,13.821,13.821,0,0,0,.148,1.624c.042.316.267,1.237.26,1.441a4.808,4.808,0,0,0-3.34,1.406,5.789,5.789,0,0,1-2.44-1.737Zm10.364,14.258c.155-.141.78-.4,1-.535.464-.274,2.018-1.406,2.018-1.856a.358.358,0,0,0-.408-.366c-.19,0-.668.584-.816.7a7.163,7.163,0,0,1-3.08,1.659,7.735,7.735,0,0,1-5.189-.7c-4.619-2.327-3.171-9.71-.225-11.51a4.91,4.91,0,0,1,1.153-.429,6.173,6.173,0,0,1,4.486.6c.162.084.366.232.513.3a.388.388,0,0,0,.33-.7,7.443,7.443,0,0,0-3.586-1.139,14.316,14.316,0,0,1-.429-3.888,4.526,4.526,0,0,1,1.231-3.078,3.6,3.6,0,0,1,3.156-1.049,1.912,1.912,0,0,1,1.294.886c.253.436,0,1.35,0,1.9a24.348,24.348,0,0,0-.176,4.113,4.76,4.76,0,0,0,1.821,3.515c.7.569.984.83,1.807,1.406s1.687,1.188,2.587,1.765c1.905,1.23,3.445,2.067,4.437,4.162,1.062,2.25.963,5.063-.506,6.736s-3.9,2.025-6.609,1.279a7.265,7.265,0,0,1-2.707-1.6c-.422-.373-.7-.7-1.083-1.09s-.7-.893-1-1.167Zm-44.759-25.571a6.992,6.992,0,0,0,2.763-.218c.162-.056.591-.274.7-.289a2.293,2.293,0,0,1,0,1.815,2.236,2.236,0,0,1-1.329.878,2.109,2.109,0,0,1-1.716-.415,2.157,2.157,0,0,1-.436-1.771Zm-.7-2.812a11.271,11.271,0,0,0,2.313-.035,4.761,4.761,0,0,0,1.694-.7,2,2,0,0,1,.232,1.934c-.569,1.075-3.515,1.054-3.846.7a2.377,2.377,0,0,1-.394-1.947Zm29.8-13.865a16.589,16.589,0,0,1,11.777,3.825,12.465,12.465,0,0,1,2.995,15.531c-.133.253-.393.211-.7.3a4.274,4.274,0,0,0-.7.274,4.6,4.6,0,0,0-2.559,3.318c-.225,1.069.07.844-.591,1.329a19.583,19.583,0,0,1-11.9,3.754,20.279,20.279,0,0,1-6.651-1.2,15.831,15.831,0,0,1-4.985-2.861,13.4,13.4,0,0,1-4.444-7.319l-.239-1.723a11.9,11.9,0,0,1,0-1.877,13.85,13.85,0,0,1,5.92-9.717,17.7,17.7,0,0,1,5.231-2.607c.513-.142,1.069-.261,1.582-.374s1.132-.182,1.666-.3a30.7,30.7,0,0,1,3.558-.345Zm-24.854,1.406-.457,4.12-.183,1.884c0,.387-.084.773-.12,1.153a4.966,4.966,0,0,1-.148,1.083,4.168,4.168,0,0,1-.077,1.089c0,.479-.091.992-.134,1.456,0,.3-.112.3-.323.436a1.51,1.51,0,0,1-.527.246,1.55,1.55,0,0,1-.844.24l-.1.042h-.042a6.244,6.244,0,0,1-1.019.056c-.97-.042-1.181.057-1.364-.815a8.672,8.672,0,0,1-.591-1.483,3.332,3.332,0,0,1-.344-.823,4,4,0,0,1-.4-1.034,10.239,10.239,0,0,1-.738-1.778,10.1,10.1,0,0,1-.633-1.617c-.1-.1-.084-.105-.141-.26l-.1-.247c-.077-.2-.141-.323-.2-.52a4.368,4.368,0,0,1-.373-.978,8.219,8.219,0,0,1-.577-1.406l-.253-.661.344.071c.745.063,1.406.2,2.215.218a11.937,11.937,0,0,0,2.32-.12c.478.056,1.716-.366,2.109-.316l.12-.063h.176l.3-.077c.253-.063.422-.127.654-.169a9.091,9.091,0,0,1,1.54-.485l-.084.794Zm18.618-5.2a4.012,4.012,0,0,1-1.364-.978c-.478-.478-.977-.816-.7-1.49a.956.956,0,0,1,1.526-.3.984.984,0,0,1,.288.879c-.07.38-.316.443-.471.7a6.725,6.725,0,0,0,.7,1.2Zm6.525-2.109c-.274-.225-.443-.2-.619-.542a.963.963,0,0,1,1.512-1.125,1,1,0,0,1,.148,1.258c-.056.239.064.2-.1.458a7.277,7.277,0,0,1-.949,1.322l-.324-.169Zm-4.078-1.167h0l-.366-.162a1.237,1.237,0,1,1,1.329-.119,1.053,1.053,0,0,0,.344.83,8.432,8.432,0,0,0,2.454,2.622.752.752,0,0,0,1.069-.253,19.279,19.279,0,0,0,1.238-1.876,4.221,4.221,0,0,0,.562-.985,1.244,1.244,0,0,1-.309-.766,1.146,1.146,0,0,1,.274-.794,1.238,1.238,0,0,1,2.109,1.125c-.211.823-1.055.823-1.167.921a5.9,5.9,0,0,0-.408,1.406l-.745,2.813c-.063.232-.12.457-.176.7-.1.443.056.45.1.816a29.609,29.609,0,0,0-5.625.281c-.415.07-.872.1-1.3.2s-.794.169-1.2.239-2.109.569-2.292.555c-.091-.352.091-.57-.049-.893l-1.033-1.99c-.183-.337-1.287-2.517-1.406-2.587a1.265,1.265,0,0,1-1.216-.836,1.237,1.237,0,0,1,2-1.314,1.314,1.314,0,0,1,.232,1.553c.12.141.239.232.366.4a4.107,4.107,0,0,0,.752.788c.485.478,1.687,1.631,2.383,1.322.513-.232,1.863-3.17,2.067-4.007Zm-27.2-5.681c0,2.109,2.426,1.695,3.466,3.009.837,1.055-.141,2.215.316,2.588.134.112.351.189.506.3.907.7.478,1.294.562,1.737s1.188.38,1.125,2.11c0,.844.112.6.408,1.188a1.272,1.272,0,0,1,0,1.3c-.246.408-1.772.809-2.285.957a17.643,17.643,0,0,1-2.637.542c-1.209.133-4.844.366-5.625-.7-.562-.759-.155-1.743.225-2.467s0-.6-.162-1.174a1.631,1.631,0,0,1,.239-1.266c.225-.373.513-.521.569-1.048s.64-.668.352-1.111c-.105-.168-.246-.231-.274-.548a1,1,0,0,1,.169-.66,2.956,2.956,0,0,1,.837-.781c.584-.372.352-.457.274-1.153a3.382,3.382,0,0,1,.113-1.406A2.11,2.11,0,0,1,525.126,6669.181Z" transform="translate(-23495.479 -11527.44)" fill="#070001" fill-rule="evenodd"/>
    <path id="路径_4682" data-name="路径 4682" d="M589.663,6738.485c.274.267.57.7,1,1.16s.661.7,1.083,1.089a7.276,7.276,0,0,0,2.707,1.6c2.714.745,5.161.366,6.609-1.28s1.568-4.485.506-6.735c-.991-2.109-2.531-2.932-4.444-4.169-.893-.576-1.765-1.167-2.58-1.765s-1.1-.858-1.807-1.406a4.778,4.778,0,0,1-1.828-3.516,25.134,25.134,0,0,1,.183-4.113c.056-.548.274-1.462,0-1.9a1.889,1.889,0,0,0-1.294-.886,3.593,3.593,0,0,0-3.157,1.04,4.507,4.507,0,0,0-1.224,3.08,13.98,13.98,0,0,0,.422,3.887,7.384,7.384,0,0,1,3.586,1.147.388.388,0,1,1-.33.7c-.148-.063-.352-.218-.513-.3a6.174,6.174,0,0,0-4.486-.59,4.935,4.935,0,0,0-1.153.429c-2.946,1.8-4.394,9.182.225,11.5a7.636,7.636,0,0,0,5.189.7,7.077,7.077,0,0,0,3.073-1.651c.155-.134.633-.7.823-.7a.365.365,0,0,1,.408.366c0,.45-1.554,1.588-2.018,1.863A3.647,3.647,0,0,0,589.663,6738.485Z" transform="translate(-23513.367 -11541.734)" fill="#fff" fill-rule="evenodd"/>
    <path id="路径_4683" data-name="路径 4683" d="M553.66,6730.615a12.489,12.489,0,0,0,4.626-.984,16.618,16.618,0,0,0,3.55-2.019,20.352,20.352,0,0,1-5.892-1.047,17.2,17.2,0,0,1-2.482-1.021c-.415-.21-.745-.387-1.132-.611-.2-.127-.879-.591-1.055-.654a4.07,4.07,0,0,0-1.469,1.729c-.091.211-.162.64-.323.746a8.592,8.592,0,0,0-3.093,1.118,8.227,8.227,0,0,0,1.406,1.055A10.736,10.736,0,0,0,553.66,6730.615Z" transform="translate(-23503.328 -11544.037)" fill="#E60012" fill-rule="evenodd"/>
    <path id="路径_4684" data-name="路径 4684" d="M568.112,6695.082c-.4.218-.5.815-.647,1.322s-.3,1.034-.443,1.547-.3,1.02-.429,1.533-.352.991-.471,1.532c-1.005,4.375,4.957,4.817,5.955,1.709a3.394,3.394,0,0,0-.7-3.016l-1.406-2.538c-.225-.408-.506-.886-.738-1.273S568.618,6694.794,568.112,6695.082Z" transform="translate(-23509.152 -11535.35)" fill="#de5916" fill-rule="evenodd"/>
    <path id="路径_4685" data-name="路径 4685" d="M529.868,6698.442a14.252,14.252,0,0,1-2.306-.928,9.565,9.565,0,0,1,.928-.956c.288-.3.647-.745.942-.984l1.645.618c.12.063.056,0,.105.07a5.875,5.875,0,0,1-.6,1.139c-.246.387-.534.7-.7,1.041Zm-4.725-2.39a6.188,6.188,0,0,0,.977.7c1.055.66.647.583,1.891-.6a4.512,4.512,0,0,0,.8-.9c-.563-.163-1.315-.7-1.849-.915,0,0-1.758,1.631-1.821,1.709Zm4.12-1.266a14.648,14.648,0,0,1-1.863-.921,8.412,8.412,0,0,1,.7-.815,9.8,9.8,0,0,1,.7-.844c.345.12.893.421,1.329.591a1.534,1.534,0,0,1,.464.225,12.449,12.449,0,0,1-1.322,1.765Zm-2.433-1.265a11.229,11.229,0,0,0,1.364-1.6c-.07-.079-1.716-1.083-1.786-1.1l-1.287,1.568a10.047,10.047,0,0,0,1.708,1.14ZM524.616,6692a8.282,8.282,0,0,1-1.406-1.188c.07-.218.464-.576.6-.837a5.372,5.372,0,0,1,1.139.105c.443.24.084.049.464.163a.888.888,0,0,1,.415.231A10.125,10.125,0,0,1,524.58,6692Zm6.328.429a9.33,9.33,0,0,0,.9-2.172l-1.624-.436a10.262,10.262,0,0,1-1.048,1.843A8.125,8.125,0,0,0,530.944,6692.425Zm-1.547-2.89h.2c.063.162-.091.338-.176.493s-.169.309-.26.471a4.374,4.374,0,0,1-.562.851,11.294,11.294,0,0,1-1.786-1.075l.084-.247h0c.3,0,.366.154.555-.169h-.19a12.459,12.459,0,0,1-2.32.119c-.8,0-1.476-.161-2.215-.225.07.064,0,0,.1.071l.316.057c-.063.154-.3.345-.387.5l-.12-.035a8.188,8.188,0,0,0,.576,1.406v-.112c.232.331.7.555.914.837l-.387.428c-.12-.119.148.147-.049-.07h0l-.091-.077a3.853,3.853,0,0,0,.2.513l.1.246c.056.162.042.169.141.26l-.042-.247c.2-.154.471-.542.7-.625l1.666,1.111a4.22,4.22,0,0,1-.766.788l-.808.766c-.063-.246-.035-.113-.12-.169a10.19,10.19,0,0,0,.738,1.771v-.112c.141.1.309.21.492.324a2.736,2.736,0,0,1,.52.323l-.457.421c-.148.141,0,.1-.169.084a3.179,3.179,0,0,0,.345.816c0-.163,0-.043-.042-.233a8.8,8.8,0,0,0,.935-.787l2.341,1.012a12.135,12.135,0,0,1-1.828,1.835l-.816-.344c.183.878.394.773,1.364.822a6.354,6.354,0,0,0,1.019-.057h.042l.1-.049c-.19,0-.7.091-.963-.154l1.723-1.822a2.366,2.366,0,0,1,.485.141l.225.077.127.042.084.05h0c-.105.576,0,.408-.331.794-.183.232-.387.394-.541.619a1.536,1.536,0,0,0,.527-.253c.2-.133.3-.126.324-.436.042-.457.112-.977.134-1.448-.106.084-.07-.105-.084.077-.155-.092-.359-.105-.541-.2.07-.247.548-.7.7-1.111v.148a4.967,4.967,0,0,0,.148-1.083c0-.379.1-.766.12-1.153-.084.12,0-.134-.091.148l-1.47-.556a6.136,6.136,0,0,1,.668-.907c.19-.26.408-.619.633-.941a.813.813,0,0,1,.429.126v.24l.457-4.113-.1.161-1.406-.4.042-.077a6.712,6.712,0,0,0-.654.176l-.3.07h-.176Z" transform="translate(-23496.277 -11533.619)" fill="#d99b20" fill-rule="evenodd"/>
    <path id="路径_4686" data-name="路径 4686" d="M560.715,6701.237a1.408,1.408,0,0,1,.344-.464c.169-.176.246-.267.38-.429a4.216,4.216,0,0,0-.654-1.441c.457.091.844.773,1.223.808.26-.415.534-.429.063-.844a4.064,4.064,0,0,0-.858-.633,2.413,2.413,0,0,0-2.341-.035,2.977,2.977,0,0,0-1.2,1.744,5.265,5.265,0,0,0,.049,2.6c.316,1.153,1.554,3.319,3.08,2.44,1.2-.7,1.1-2.875.928-3.263C561.644,6701.539,560.948,6701.356,560.715,6701.237Z" transform="translate(-23506.635 -11536.209)" fill="#0b318f" fill-rule="evenodd"/>
    <path id="路径_4687" data-name="路径 4687" d="M572.643,6714.417c-.127,1.406-.141,3.951-2.243,3.922a2.107,2.107,0,0,1-1.828-1.25,10.887,10.887,0,0,1-.886-2.222,18.714,18.714,0,0,1-.583-2.151c-.077-.323-.19-.8-.239-1.14s.049-.2.942-.331l2.348-.289c.345-.07.844-.126,1.188-.176l.612-.07c.274-.034.492-.147.577-.042a24.86,24.86,0,0,1,.112,3.748Zm-.169-4.556c-.766.161-2.812.357-3.726.478-.591.077-1.245.2-1.8.253-.942.091-1.034.12-.851,1.083.345,1.863,1.111,4.964,2.109,6.279a2.733,2.733,0,0,0,2.9,1.1,2.875,2.875,0,0,0,1.976-2.2,20.809,20.809,0,0,0,.26-5.871C573.276,6710.212,573.4,6709.65,572.475,6709.861Z" transform="translate(-23509.156 -11539.743)" fill="#fff" fill-rule="evenodd"/>
    <path id="路径_4688" data-name="路径 4688" d="M568.39,6716.48a10.862,10.862,0,0,0,.886,2.223,2.107,2.107,0,0,0,1.828,1.251c2.109,0,2.109-2.531,2.243-3.924-.337-.133-.555-.323-1.2-.569a3.456,3.456,0,0,0-2.861.225C568.988,6715.841,568.411,6716.165,568.39,6716.48Z" transform="translate(-23509.861 -11541.357)" fill="#e79087" fill-rule="evenodd"/>
    <path id="路径_4689" data-name="路径 4689" d="M568.038,6715.208c0-.315.6-.639.893-.793a3.457,3.457,0,0,1,2.862-.225c.647.247.865.436,1.2.57a24.86,24.86,0,0,0-.112-3.748c-.084-.105-.3,0-.577.042l-.612.071c-.345.056-.844.1-1.188.175l-2.348.289c-.893.134-.991,0-.942.332s.162.815.239,1.139a18.679,18.679,0,0,0,.584,2.151Z" transform="translate(-23509.508 -11540.085)" fill="#E60012" fill-rule="evenodd"/>
    <path id="路径_4690" data-name="路径 4690" d="M578.92,6726.322a5.778,5.778,0,0,0,2.44,1.73,4.871,4.871,0,0,1,3.34-1.406c0-.2-.218-1.118-.26-1.441a13.669,13.669,0,0,1-.148-1.625c-.148.043-1.055.7-1.259.809a12.54,12.54,0,0,1-1.287.7,15.978,15.978,0,0,1-2.826,1.231Z" transform="translate(-23512.986 -11543.829)" fill="#E60012" fill-rule="evenodd"/>
    <path id="路径_4691" data-name="路径 4691" d="M576.84,6700.582l3.122-.858c.366-.1.816-.12.787-.542-.049-.632-1.139-.147-1.919.042-.7.162-1.469.443-2.109.555.1-.239,1.87-2.369,2.194-2.812s-.134-1-.57-.485-.97,1.237-1.469,1.863l-1.484,1.877c-.33.541.316.7.654.858l3.515,1.483a1.1,1.1,0,0,0,.6.162.366.366,0,0,0,.183-.562,3.959,3.959,0,0,0-1.146-.562l-1.174-.492a8.068,8.068,0,0,1-1.188-.528Z" transform="translate(-23511.912 -11535.724)" fill="#0b318f" fill-rule="evenodd"/>
    <path id="路径_4692" data-name="路径 4692" d="M553.9,6709c-2.384,0-4.043,1.511-2.559,2.25,1.287.647,3.825.253,4.612-.7.429-.52.112-.977-.373-1.223A3.761,3.761,0,0,0,553.9,6709Z" transform="translate(-23504.631 -11539.5)" fill="#f1bdc2" fill-rule="evenodd"/>
    <path id="路径_4693" data-name="路径 4693" d="M584.637,6705.406c-3.691.506-3.276,2.883.246,2.489.9-.1,2.475-.6,2.517-1.456C587.443,6705.47,585.53,6705.287,584.637,6705.406Z" transform="translate(-23513.916 -11538.425)" fill="#f1bdc2" fill-rule="evenodd"/>
    <path id="路径_4694" data-name="路径 4694" d="M531.567,6726.44c-1.6.394-2.109,3.663-.33,6.019a7.171,7.171,0,0,0,1.406,1.406c0-.6-.7-4.605-.8-5.583-.042-.31-.07-.633-.112-.95Z" transform="translate(-23498.496 -11544.679)" fill="#fff" fill-rule="evenodd"/>
    <path id="路径_4695" data-name="路径 4695" d="M528.973,6707.091a2.377,2.377,0,0,0,.394,1.948c.3.323,3.276.344,3.846-.7a1.99,1.99,0,0,0-.232-1.927,4.63,4.63,0,0,1-1.694.7A11.966,11.966,0,0,1,528.973,6707.091Z" transform="translate(-23498.137 -11538.731)" fill="#e8b347" fill-rule="evenodd"/>
    <path id="路径_4696" data-name="路径 4696" d="M529.982,6711.173a2.109,2.109,0,0,0,.436,1.765,2.065,2.065,0,0,0,1.716.422,2.237,2.237,0,0,0,1.329-.879,2.305,2.305,0,0,0,0-1.821,4.972,4.972,0,0,0-.7.288,7.568,7.568,0,0,1-2.777.225Z" transform="translate(-23498.443 -11539.993)" fill="#e8b347" fill-rule="evenodd"/>
    <path id="路径_4697" data-name="路径 4697" d="M531.943,6701.139c.176-.316.464-.654.7-1.041a5.9,5.9,0,0,0,.6-1.14c-.049-.042,0,0-.106-.07l-1.645-.619c-.3.239-.654.7-.942.984a9.728,9.728,0,0,0-.928.956A14.245,14.245,0,0,0,531.943,6701.139Z" transform="translate(-23498.352 -11536.315)" fill="#e8b347" fill-rule="evenodd"/>
    <path id="路径_4698" data-name="路径 4698" d="M526.2,6698.275a6.155,6.155,0,0,0,.977.7c1.055.661.647.583,1.891-.6a4.49,4.49,0,0,0,.8-.9c-.563-.162-1.315-.7-1.849-.914C527.993,6696.539,526.263,6698.163,526.2,6698.275Z" transform="translate(-23497.332 -11535.808)" fill="#e8b347" fill-rule="evenodd"/>
    <path id="路径_4699" data-name="路径 4699" d="M527.622,6702.709a8.251,8.251,0,0,0,.591,1.483l.815.345a12.159,12.159,0,0,0,1.828-1.835l-2.341-1.013a8.836,8.836,0,0,1-.935.788C527.636,6702.667,527.615,6702.548,527.622,6702.709Z" transform="translate(-23497.744 -11537.33)" fill="#e8b347" fill-rule="evenodd"/>
    <path id="路径_4700" data-name="路径 4700" d="M531.267,6696.061a12.384,12.384,0,0,0,1.322-1.765,1.593,1.593,0,0,0-.464-.224c-.436-.169-.984-.471-1.329-.591a8.594,8.594,0,0,0-.7.844,9.49,9.49,0,0,0-.7.815,14.752,14.752,0,0,0,1.877.921Z" transform="translate(-23498.281 -11534.892)" fill="#e8b347" fill-rule="evenodd"/>
    <path id="路径_4701" data-name="路径 4701" d="M527.878,6694.207a11.153,11.153,0,0,0,1.364-1.6c-.07-.077-1.716-1.083-1.786-1.1l-1.287,1.567a10.082,10.082,0,0,0,1.709,1.139Z" transform="translate(-23497.324 -11534.306)" fill="#e8b347" fill-rule="evenodd"/>
    <path id="路径_4702" data-name="路径 4702" d="M533.672,6692.688a9.313,9.313,0,0,0,.9-2.172l-1.624-.436a10.478,10.478,0,0,1-1.048,1.842,8.033,8.033,0,0,0,1.772.765Z" transform="translate(-23499.025 -11533.883)" fill="#e8b347" fill-rule="evenodd"/>
    <path id="路径_4703" data-name="路径 4703" d="M524.612,6695.3a10.88,10.88,0,0,0,.633,1.625c.084.056.056-.078.12.168l.809-.766a4.2,4.2,0,0,0,.766-.788l-1.666-1.111c-.232.084-.506.471-.7.626Z" transform="translate(-23496.85 -11535.175)" fill="#e8b347" fill-rule="evenodd"/>
    <path id="路径_4704" data-name="路径 4704" d="M524.871,6692.326a10.213,10.213,0,0,0,1.244-1.526.837.837,0,0,0-.415-.233c-.38-.111,0,.079-.464-.161a5.372,5.372,0,0,0-1.139-.1c-.134.26-.527.618-.6.836a8.267,8.267,0,0,0,1.371,1.189Z" transform="translate(-23496.531 -11533.949)" fill="#e8b347" fill-rule="evenodd"/>
    <path id="路径_4705" data-name="路径 4705" d="M529.05,6689.992h.19c-.19.317-.253.147-.555.169h0l-.084.246a11.191,11.191,0,0,0,1.786,1.076,4.363,4.363,0,0,0,.562-.851c.092-.162.169-.295.26-.471s.239-.33.176-.492h-.2C530.766,6689.626,529.528,6690.048,529.05,6689.992Z" transform="translate(-23498.045 -11533.761)" fill="#e8b347" fill-rule="evenodd"/>
    <path id="路径_4706" data-name="路径 4706" d="M531.663,6705.434a1.482,1.482,0,0,0,.844-.232c.155-.225.359-.386.541-.619.3-.387.225-.218.33-.794h0l-.084-.049-.134-.042-.218-.077a2.4,2.4,0,0,0-.485-.141l-1.758,1.772C530.953,6705.526,531.473,6705.427,531.663,6705.434Z" transform="translate(-23498.668 -11537.861)" fill="#e8b347" fill-rule="evenodd"/>
    <path id="路径_4707" data-name="路径 4707" d="M534.507,6697.207l.183-1.891v-.239a.809.809,0,0,0-.429-.126c-.225.324-.443.7-.633.942a5.7,5.7,0,0,0-.668.907l1.469.556C534.479,6697.095,534.394,6697.327,534.507,6697.207Z" transform="translate(-23499.342 -11535.33)" fill="#e8b347" fill-rule="evenodd"/>
    <path id="路径_4708" data-name="路径 4708" d="M571,6723.807a1.581,1.581,0,0,0,2.06.513c.218-.126.141-.112.3-.266.049-.05.105-.085.155-.141a1.752,1.752,0,0,0,.323-.562,2.531,2.531,0,0,1-1.266.59A5.1,5.1,0,0,1,571,6723.807Z" transform="translate(-23510.635 -11543.762)" fill="#dedadd" fill-rule="evenodd"/>
    <path id="路径_4709" data-name="路径 4709" d="M596.87,6728.1a5.173,5.173,0,0,0,.4.752,8.326,8.326,0,0,0,1.666,1.617A5.924,5.924,0,0,0,596.87,6728.1Z" transform="translate(-23518.316 -11545.171)" fill="#E60012" fill-rule="evenodd"/>
    <path id="路径_4710" data-name="路径 4710" d="M533.982,6688.965l-.042.077,1.406.4.1-.162.084-.8a9.849,9.849,0,0,0-1.547.486Z" transform="translate(-23499.631 -11533.408)" fill="#e8b347" fill-rule="evenodd"/>
    <path id="路径_4711" data-name="路径 4711" d="M526.58,6700.452a4.159,4.159,0,0,0,.4,1.041c.148,0,0,.056.169-.085l.457-.422a2.733,2.733,0,0,0-.52-.323c-.19-.113-.352-.225-.492-.323Z" transform="translate(-23497.445 -11536.93)" fill="#e8b347" fill-rule="evenodd"/>
    <path id="路径_4712" data-name="路径 4712" d="M536.12,6758.638h.619a7.61,7.61,0,0,0-.3-1.639C536.415,6757.52,536.183,6758.1,536.12,6758.638Z" transform="translate(-23500.277 -11553.752)" fill="#c51672" fill-rule="evenodd"/>
    <path id="路径_4713" data-name="路径 4713" d="M534.406,6702.368a4.166,4.166,0,0,0,.077-1.089v-.148a10.34,10.34,0,0,1-.7,1.11c.183.1.387.113.541.2C534.335,6702.262,534.3,6702.445,534.406,6702.368Z" transform="translate(-23499.584 -11537.164)" fill="#e8b347" fill-rule="evenodd"/>
    <path id="路径_4714" data-name="路径 4714" d="M523.474,6692.763a4.553,4.553,0,0,0,.373.984l.091.077h0c.2.218-.07-.049.049.07l.387-.429c-.239-.281-.7-.506-.914-.837Z" transform="translate(-23496.521 -11534.64)" fill="#e8b347" fill-rule="evenodd"/>
    <path id="路径_4715" data-name="路径 4715" d="M522.553,6690.543l.12.035c.091-.154.323-.344.387-.5l-.309-.056c-.105-.042-.035,0-.105-.07l-.345-.063Z" transform="translate(-23496.176 -11533.827)" fill="#e8b347" fill-rule="evenodd"/>
    <path id="路径_4716" data-name="路径 4716" d="M562.673,6676.546h0l-.366-.162a1.237,1.237,0,1,1,1.329-.119,1.053,1.053,0,0,0,.344.829,8.427,8.427,0,0,0,2.454,2.622.751.751,0,0,0,1.069-.253,19.173,19.173,0,0,0,1.238-1.876,4.209,4.209,0,0,0,.562-.984,1.246,1.246,0,0,1-.309-.767,1.144,1.144,0,0,1,.274-.794,1.238,1.238,0,0,1,2.109,1.125c-.211.823-1.055.823-1.167.921a5.908,5.908,0,0,0-.408,1.407l-.745,2.812c-.063.233-.119.458-.176.7-.1.443.056.451.1.816a29.568,29.568,0,0,0-5.625.282c-.415.069-.872.1-1.3.2s-.794.169-1.2.24-2.109.569-2.292.555c-.091-.352.091-.57-.049-.893l-1.034-1.991c-.183-.337-1.287-2.517-1.406-2.587a1.266,1.266,0,0,1-1.216-.837,1.237,1.237,0,0,1,2-1.314,1.314,1.314,0,0,1,.232,1.553c.12.141.239.232.366.4a4.116,4.116,0,0,0,.752.788c.485.478,1.688,1.631,2.384,1.322C561.12,6680.342,562.469,6677.383,562.673,6676.546Z" transform="translate(-23505.822 -11529.123)" fill="#fff" fill-rule="evenodd"/>
  </g>
</svg>
